<svg xmlns="http://www.w3.org/2000/svg" viewBox="0 0 782.3 782.3"><rect width="782.3" height="782.3" fill="#030712" rx="64" ry="64"/><path fill="#00dc82" d="M429.8 597.6H665a44.2 44.2 0 0 0 21.3-5.5 42.54 42.54 0 0 0 15.6-15.1 40.26 40.26 0 0 0 0-41.3l-158-265.5a42.54 42.54 0 0 0-15.6-15.1 43.65 43.65 0 0 0-42.6 0 42.54 42.54 0 0 0-15.6 15.1l-40.4 67.9-79-132.8a42.54 42.54 0 0 0-15.6-15.1 43.65 43.65 0 0 0-42.6 0 42.54 42.54 0 0 0-15.6 15.1L80.4 535.7a40.26 40.26 0 0 0 0 41.3A41.8 41.8 0 0 0 96 592.1a44 44 0 0 0 21.3 5.5H265c58.5 0 101.7-24.9 131.4-73.6l72-121 38.6-64.8 115.9 194.7H468.4Zm-162.9-64.8H159.8l154.3-259.2 77 129.6-51.5 86.6c-19.7 31.5-42.1 43-76.8 43" style="filter:drop-shadow(0 0 12px #00dc82)"/></svg>
